/* XPM */
static char *abd104b69c5a408a960d6eedaa10befdJPEttCPbqQ0ZGqig[] = {
/* columns rows colors chars-per-pixel */
"32 32 2 1 ",
"  c None",
". c black",
/* pixels */
"                                ",
"                                ",
"                                ",
"                                ",
"                                ",
"        .                       ",
"       .            .......     ",
"       .                 .      ",
"      .           .     .       ",
"      .           .    .        ",
"     .. ......    .   ...       ",
"     ....  ..     .    ..       ",
"          ..      .             ",
"         . ...    .             ",
"         .....    .        .    ",
"           .      .       ..    ",
"          .       .      ..     ",
"         .        .     . .     ",
"         .        .    . .      ",
"        .         .   . .       ",
"       .          .  .  .       ",
"     ..           . .   .       ",
"     ..           ..   .        ",
"                      .         ",
"                     ....       ",
"                    ...         ",
"                    ..          ",
"                                ",
"                                ",
"                                ",
"                                ",
"                                "
};
