/* XPM */
static char *result[] = {
/* columns rows colors chars-per-pixel */
"64 64 16 1 ",
"  c #0F0A01",
". c gray4",
"X c #160601",
"o c #35231D",
"O c #503201",
"+ c #633E01",
"@ c #42302A",
"# c #45332D",
"$ c #4F3D37",
"% c #7D4E01",
"& c #9F6301",
"* c #B47613",
"= c #E8AA47",
"- c #ECAE4B",
"; c #639BFF",
": c white",
/* pixels */
";;;;;;;;;;;;;;;;;;;;;;;;;;;;;;;;;;;;;;;;;;;;;;;;;;;;;;;;;;;;;;;;",
";;;;;;;;;;;;;;;;;;;;;;;;;;;;;;;;;;;;;;;;;;;;;;;;;;;;;;;;;;;;;;;;",
";;;;;;;;;;;;;;;;;;;;;;;;;;;;;;;;;;;;;;;;;;;;;;;;;;;;;;;;;;;;;;;;",
";;;;;;;;;;;;;;;;;;;;::::::::::::::::::::::::::::::;;;;;;;;;;;;;;",
";;;;;;;;;;;;;;;;;;;;:XXXXXXXXXXooooooo..**==-----:;;;;;;;;;;;;;;",
";;;;;;;;;;;;;;;;;;:::XXXXXXXXXXooooooo..**==-----:;;;;;;;;;;;;;;",
";;;;;;;;;;;;;;;;;;:XXoooooooooo###$$XX..**--*****:;;;;;;;;;;;;;;",
";;;;;;;;;;;;;;;;:::XXoooooooooo###$$XX..**--*****:;;;;;;;;;;;;;;",
";;;;;;;;;;;;;;;;:XXoooo$$$$$$#####XX..**--**OOOO@:;;;;;;;;;;;;;;",
";;;;;;;;;;;;;;;::XXoooo$$$$$$#####XX..**--**OOOO@:::;;;;;;;;;;;;",
";;;;;;;;;;;;;;::Xoooo$$$$#######XX..**--++++@@@@@XX:;;;;;;;;;;;;",
";;;;;;;;;;;:::::Xoooo$$$$#######XX..**--++++@@@@@XX:::::::::::;;",
";;;;;;;;;;;:XXXXooo$$$$######ooo..  --++++..XXXXXXXXX::******:;;",
";;;;;;;;;:::XXXXooo$$$$######ooo..  --++++..XXXXXXXXX::******:;;",
";;;;;;;;;:..ooooo$$$$######ooooX..**--++XXXXXXXXXXXXX**------:;;",
";;;;;;;:::..ooooo$$$$######ooooX..**--++XXXXXXXXXXXXX**------:;;",
";;;;;:::..oooooo$$$####ooooooXXX**&&&&++XXXXXXXXXXX**--------:;;",
";;;;;:..oooooo$$$######ooooooXXX**&&**++XXXXXXXXX..**----..:::;;",
";;;;;:..oooooo$$$######ooooooXXX**&&**++XXXXXXXXX..**----..:;;;;",
";;;;::..oooo$$$$#####oooooooo..X**&&**----XXXXXXX..**--XX..:;;;;",
";;;:::..oooo$$$$#####oooooooo..X**&&**----XXXXXXX..**--XX..:::;;",
";;;:..oooo$$$$#######ooooooXXXXX**&&&&**----XXXXXXX**--XXXXXX:;;",
";;;:..oooo$$$$#######ooooooXXXXX**&&&&**----XXXXXXX**--XXXXXX:;;",
";;;:XXoo$$$$$$#####ooooooXXXXXXX**&&XX&&**----XXXXX**--XXXXXX:;;",
";;;:XXoo$$$$$$#####ooooooXXXXXXX**&&XX&&**----XXXXX**--XXXXXX:;;",
";;;:XXoo$$$$#######ooooooXXXXXXX**&&XXXX&&**----XXX**--XXXXXX:;;",
";:::XXoo$$$$#######ooooooXXXXXXX**&&XXXX&&**----XXX**--XXXXXX:::",
";:..oooo$$$$#######ooooooXXXXXXX**&&XXXXXX&&**---..**--XXXXXX..:",
";:..oooo$$$$#######ooooooXXXXXXX**&&XXXXXX&&**---..**--XXXXXX..:",
";:..oooo$$$$#######ooooooXXXXXXX**&&XXXXXXXX&&**-%%----XXXXXXXX:",
";:..oooo$$$$#######ooooooXXXXXXX**&&XXXXXXXX&&**-%%----XXXXXXXX:",
";:..oooo$$#######ooooooooXXXXXXX**&&XXXXXXXXXX&&*%%**--XXXXXXXX:",
";:..oooo$$#######ooooooooXXXXXXX**--XXXXXXXXXXXX&%%**--XXXXXXXX:",
";:..oooo$$#######ooooooooXXXXXXX**--XXXXXXXXXXXX&%%**--XXXXXXXX:",
";:..oooo$$#######ooooooooXXXXXXX**&&--XXXXXXXXXXX%%**--XXXXXXXX:",
";:..oooo$$#######ooooooooXXXXXXX**&&--XXXXXXXXXXX%%**--XXXXXXXX:",
";:..oooo$$#######ooooooooXXXXXXX**&&&&--XXXXXXXXX%%**--XXXXXXXX:",
";:..oooo$$#######ooooooooXXXXXXX**&&&&--XXXXXXXXX%%**--XXXXXXXX:",
";:XXoooo$$#######ooooooooXXXXXXX**&&&&&&--XXXXXXX%%**--XXXXXXXX:",
";:XXoooo$$#######ooooooooXXXXXXX**&&&&&&--XXXXXXX%%**--XXXXXXXX:",
";:XXoooo$$#######ooooooooXXXXXXX**&&..&&&&--XXXXX%%**--XXXXXX:::",
";:XXoooo$$#######ooooooooXXXXXXX**&&..&&&&--XXXXX%%**--XXXXXX:;;",
";:..oooo$$#########ooooooXXXXXXX**&&XX..&&&&--XXX%%**--XXXXXX:;;",
";:..oooo$$#########ooooooXXXXXXX**&&XX..&&&&--XXX%%**--XXXXXX:;;",
";:::..oo$$$$#######ooooooooXXXXX%%&&XXXXXX&&&&--.%%**--XXXX:::;;",
";;;:..oo$$$$#######ooooooooXXXXX%%&&XXXXXX&&&&--.%%**--XXXX:;;;;",
";;;:..oo$$$$#########ooooooXXXXX%%&&XXXXXX..&&&&-%%**--XXXX:;;;;",
";;;:..oo$$$$#########ooooooXXXXX%%&&XXXXXX..&&&&-%%**--XXXX:;;;;",
";;;:::XXoo$$$$#######ooooooXXXX.%%&&XXXXXXXXXX&&&%%**%%XX:::;;;;",
";;;;;:::XXoo$$#########ooooooXX.%%%%XXXXXXXXXXXX&%%%%OO:::;;;;;;",
";;;;;;;:XXoo$$#########ooooooXX.%%%%XXXXXXXXXXXX&%%%%OO:;;;;;;;;",
";;;;;;;:::XXoo$$#########ooooXX.OO%%OOXXXXXXXXXX.%%OO:::;;;;;;;;",
";;;;;;;;;:XXoo$$#########ooooXX.OO%%OOXXXXXXXXXX.%%OO:;;;;;;;;;;",
";;;;;;;;;:::XXoo$$$########ooXXXOO%%%%OOXXXXXXXXXOO:::;;;;;;;;;;",
";;;;;;;;;;;:XXoo$$$########ooXXXOO%%%%OOXXXXXXXXXOO:;;;;;;;;;;;;",
";;;;;;;;;;;:::XXo$$$$########XXXOOOO%%%%OOXXXXXXX:::;;;;;;;;;;;;",
";;;;;;;;;;;;::XXo$$$$########XXXOOOO%%%%OOXXXXXXX:;;;;;;;;;;;;;;",
";;;;;;;;;;;;::::Xoooooooooo##ooXXXXXOO%%%%OOOOXX::;;;;;;;;;;;;;;",
";;;;;;;;;;;;;;::Xoooooooooo##ooXXXXXOO%%%%OOOOXX:;;;;;;;;;;;;;;;",
";;;;;;;;;;;;;;:::......XXooooooXXXXXXXOO%%%%OO:::;;;;;;;;;;;;;;;",
";;;;;;;;;;;;;;;::......XXooooooXXXXXXXOO%%%%OO::;;;;;;;;;;;;;;;;",
";;;;;;;;;;;;;;;;:::::::XXXXXXXXXXXXXXXXX:::::::;;;;;;;;;;;;;;;;;",
";;;;;;;;;;;;;;;;;;;;;;:XXXXXXXXXXXXXXXXX:::;;;;;;;;;;;;;;;;;;;;;",
";;;;;;;;;;;;;;;;;;;;;;:::::::::::::::::::;;;;;;;;;;;;;;;;;;;;;;;"
};
