/* XPM */
static char *ad4a38c0a7ab4071e21d52efe0b2a896vJaOcHivmiLrlTQV[] = {
/* columns rows colors chars-per-pixel */
"34 34 15 1 ",
"  c None",
". c #0F0A01",
"X c gray4",
"o c #160601",
"O c #35231D",
"+ c #503201",
"@ c #633E01",
"# c #42302A",
"$ c #45332D",
"% c #4F3D37",
"& c #7D4E01",
"* c #9F6301",
"= c #B47613",
"- c #E8AA47",
"; c #ECAE4B",
/* pixels */
"                                  ",
"                                  ",
"           oooooOOOOX=-;;;        ",
"          oOOOOO$$%oX=;===        ",
"         oOO%%%$$$oX=;=++#        ",
"        oOO%%$$$$oX=;@@###o       ",
"      ooOO%%$$$OOX.;@@Xooooo ===  ",
"     XOOO%%$$$OOoX=;@ooooooo=;;;  ",
"    XOOO%%$$OOOoo=**@oooooo=;;;;  ",
"   XOOO%%$$$OOOoo=*=@oooooX=;;X   ",
"   XOO%%$$$OOOOXo=*=;;ooooX=;oX   ",
"  XOO%%$$$$OOOooo=**=;;oooo=;ooo  ",
"  oO%%%$$$OOOoooo=*o*=;;ooo=;ooo  ",
"  oO%%$$$$OOOoooo=*oo*=;;oo=;ooo  ",
" XOO%%$$$$OOOoooo=*ooo*=;;X=;oooX ",
" XOO%%$$$$OOOoooo=*oooo*=;&;;oooo ",
" XOO%$$$$OOOOoooo=*ooooo*=&=;oooo ",
" XOO%$$$$OOOOoooo=;oooooo*&=;oooo ",
" XOO%$$$$OOOOoooo=*;oooooo&=;oooo ",
" XOO%$$$$OOOOoooo=**;ooooo&=;oooo ",
" oOO%$$$$OOOOoooo=***;oooo&=;oooo ",
" oOO%$$$$OOOOoooo=*X**;ooo&=;ooo  ",
" XOO%$$$$$OOOoooo=*oX**;oo&=;ooo  ",
"  XO%%$$$$OOOOooo&*ooo**;X&=;oo   ",
"  XO%%$$$$$OOOooo&*oooX**;&=;oo   ",
"   oO%%$$$$OOOooX&*ooooo**&=&o    ",
"    oO%$$$$$OOOoX&&oooooo*&&+     ",
"     oO%$$$$$OOoX+&+oooooX&+      ",
"      oO%%$$$$Ooo+&&+ooooo+       ",
"       oO%%$$$$oo++&&+oooo        ",
"        oOOOOO$Oooo+&&++o         ",
"         XXXoOOOoooo+&&+          ",
"            ooooooooo             ",
"                                  "
};
